<svg width="45" height="45" viewBox="0 0 45 45" fill="none" xmlns="http://www.w3.org/2000/svg">
<circle cx="22.5" cy="22.5" r="22" stroke="black"/>
<g clip-path="url(#clip0_102_33)">
<path d="M23 12.3202C26.1546 12.3202 26.525 12.3343 27.7718 12.3905C28.925 12.4421 29.5484 12.6343 29.9656 12.7983C30.5187 13.014 30.9125 13.2671 31.325 13.6796C31.7375 14.0921 31.9953 14.4858 32.2062 15.039C32.3656 15.4561 32.5625 16.0796 32.614 17.2327C32.6703 18.4796 32.6843 18.8499 32.6843 22.0046C32.6843 25.1593 32.6703 25.5296 32.614 26.7765C32.5625 27.9296 32.3703 28.553 32.2062 28.9702C31.9906 29.5233 31.7375 29.9171 31.325 30.3296C30.9125 30.7421 30.5187 30.9999 29.9656 31.2108C29.5484 31.3702 28.925 31.5671 27.7718 31.6186C26.525 31.6749 26.1546 31.689 23 31.689C19.8453 31.689 19.475 31.6749 18.2281 31.6186C17.075 31.5671 16.4515 31.3749 16.0343 31.2108C15.4812 30.9952 15.0875 30.7421 14.675 30.3296C14.2625 29.9171 14.0046 29.5233 13.7937 28.9702C13.6343 28.553 13.4375 27.9296 13.3859 26.7765C13.3296 25.5296 13.3156 25.1593 13.3156 22.0046C13.3156 18.8499 13.3296 18.4796 13.3859 17.2327C13.4375 16.0796 13.6296 15.4561 13.7937 15.039C14.0093 14.4858 14.2625 14.0921 14.675 13.6796C15.0875 13.2671 15.4812 13.0093 16.0343 12.7983C16.4515 12.639 17.075 12.4421 18.2281 12.3905C19.475 12.3296 19.8453 12.3202 23 12.3202ZM23 10.1921C19.7937 10.1921 19.3906 10.2061 18.1296 10.2624C16.8734 10.3186 16.0156 10.5202 15.2656 10.8108C14.4875 11.1108 13.8312 11.5186 13.175 12.1749C12.5187 12.8311 12.1156 13.4921 11.8109 14.2655C11.5203 15.0155 11.3187 15.8733 11.2625 17.1343C11.2062 18.3905 11.1921 18.7936 11.1921 21.9999C11.1921 25.2061 11.2062 25.6093 11.2625 26.8702C11.3187 28.1265 11.5203 28.9843 11.8109 29.739C12.1109 30.5171 12.5187 31.1733 13.175 31.8296C13.8312 32.4858 14.4921 32.889 15.2656 33.1936C16.0156 33.4843 16.8734 33.6858 18.1343 33.7421C19.3953 33.7983 19.7937 33.8124 23.0046 33.8124C26.2156 33.8124 26.614 33.7983 27.875 33.7421C29.1312 33.6858 29.989 33.4843 30.7437 33.1936C31.5218 32.8936 32.1781 32.4858 32.8343 31.8296C33.4906 31.1733 33.8937 30.5124 34.1984 29.739C34.489 28.989 34.6906 28.1311 34.7468 26.8702C34.8031 25.6093 34.8171 25.2108 34.8171 21.9999C34.8171 18.789 34.8031 18.3905 34.7468 17.1296C34.6906 15.8733 34.489 15.0155 34.1984 14.2608C33.8984 13.4827 33.4906 12.8265 32.8343 12.1702C32.1781 11.514 31.5171 11.1108 30.7437 10.8061C29.9937 10.5155 29.1359 10.314 27.875 10.2577C26.6093 10.2061 26.2062 10.1921 23 10.1921Z" fill="#331B3B"/>
<path d="M23 15.9343C19.6531 15.9343 16.9343 18.6483 16.9343 21.9999C16.9343 25.3515 19.6531 28.0655 23 28.0655C26.3468 28.0655 29.0656 25.3468 29.0656 21.9999C29.0656 18.653 26.3468 15.9343 23 15.9343ZM23 25.9374C20.825 25.9374 19.0625 24.1749 19.0625 21.9999C19.0625 19.8249 20.825 18.0624 23 18.0624C25.175 18.0624 26.9375 19.8249 26.9375 21.9999C26.9375 24.1749 25.175 25.9374 23 25.9374Z" fill="#331B3B"/>
<path d="M29.3047 17.1109C30.0865 17.1109 30.7203 16.4771 30.7203 15.6952C30.7203 14.9134 30.0865 14.2796 29.3047 14.2796C28.5228 14.2796 27.889 14.9134 27.889 15.6952C27.889 16.4771 28.5228 17.1109 29.3047 17.1109Z" fill="#331B3B"/>
</g>
<defs>
<clipPath id="clip0_102_33">
<rect width="24" height="24" fill="white" transform="translate(11 10)"/>
</clipPath>
</defs>
</svg>
