<svg width="45" height="45" viewBox="0 0 45 45" fill="none" xmlns="http://www.w3.org/2000/svg">
<circle cx="22.5" cy="22.5" r="22" stroke="black"/>
<g clip-path="url(#clip0_102_32)">
<path fill-rule="evenodd" clip-rule="evenodd" d="M32 31H28.3016V24.7007C28.3016 22.9736 27.6453 22.0085 26.2783 22.0085C24.7912 22.0085 24.0143 23.0129 24.0143 24.7007V31H20.45V19H24.0143V20.6164C24.0143 20.6164 25.0859 18.6334 27.6324 18.6334C30.1777 18.6334 32 20.1877 32 23.4023V31ZM16.1978 17.4287C14.9838 17.4287 14 16.4372 14 15.2143C14 13.9915 14.9838 13 16.1978 13C17.4119 13 18.3951 13.9915 18.3951 15.2143C18.3951 16.4372 17.4119 17.4287 16.1978 17.4287ZM14.3574 31H18.074V19H14.3574V31Z" fill="#331B3B"/>
</g>
<defs>
<clipPath id="clip0_102_32">
<rect width="18" height="18" fill="white" transform="translate(14 13)"/>
</clipPath>
</defs>
</svg>
